# xmcd
#
# Track frame offsets:
#	150
#	11272
#	23876
#	35983
#	46253
#	60000
#	75928
#	92405
#	104241
#	118415
#
# Disc length: 1734 seconds
#
# Revision: 0
# Processed by: cddbd v1.5.2PL0 Copyright (c) Steve Scherf et al.
# Submitted via: EasyCDDAExtractor 16.0.6.1
#
DISCID=7306c40a
DTITLE=Συλλογικός δίσκος - Λαϊκό τραγούδι στον κινηματογράφο 3
DYEAR=2008
DGENRE=Λαϊκή
TTITLE0=Φυτούση Ζωή - Ο δρόμος είναι σκοτεινός [Γιώργος Μητσάκης]
TTITLE1=Γιαννακοπούλου Ντόρα - Μ' αρνήθηκε η αγάπη μου [Γ. Μητσάκης-Ν. Μάτσας/
TTITLE1=Κ. Ασημακόπουλος]
TTITLE2=Μπιθικώτσης Γρηγόρης-Κούρτη Ρία - Βάρκα στο γιαλό [Μίκης Θεοδωράκης]
TTITLE3=Βλαχοπούλου Ρένα - Γλυκειά ζωή [Μίμης Πλέσσας-Κώστας Κινδύνης]
TTITLE4=Λίντα Μαίρη - Ο Χασάν αγάς [Μανώλης Χιώτης]
TTITLE5=Γκρέϋ Καίτη - Πάρε με αγάπη μου [Γιάννης Παπαϊωάννου]
TTITLE6=Διονυσίου Στράτος-Παπαϊωάννου Γιάννης - Το παλιογέφυρο [Γιάννης Παπαϊω
TTITLE6=άννου]
TTITLE7=Γαβαλάς Πάνος-Κούρτη Ρία - Τι με άλλη, τι με σένα [Απόστολος Καλδάρας-
TTITLE7=Γιώργος Σαμολαδάς]
TTITLE8=Πάνου Πόλυ - Σίδερα λυγίζουνε [Χρήστος Κολοκοτρώνης]
TTITLE9=Λίντα Μαίρη-Χιώτης Μανώλης - Αν είσαι μάγκας [Μανώλης Χιώτης]
EXTD=
EXTT0=
EXTT1=
EXTT2=
EXTT3=
EXTT4=
EXTT5=
EXTT6=
EXTT7=
EXTT8=
EXTT9=
PLAYORDER=
